<?xml version="1.0" encoding="utf-8"?>
<!-- Generator: Adobe Illustrator 27.9.0, SVG Export Plug-In . SVG Version: 6.00 Build 0)  -->
<svg version="1.1" id="Componente_3_1" xmlns="http://www.w3.org/2000/svg" xmlns:xlink="http://www.w3.org/1999/xlink" x="0px"
	 y="0px" viewBox="0 0 221.7 71.4" style="enable-background:new 0 0 221.7 71.4;" xml:space="preserve">
<style type="text/css">
	.st0{fill:#FFFFFF;}
</style>
<g id="Grupo_15">
	<g>
		<g id="Grupo_14">
			<path id="Trazado_30" class="st0" d="M20.9,9.8H4.3v50.9h16.9c15.1,0,25.3-10.3,25.3-25.4C46.5,20.1,36.2,9.8,20.9,9.8
				 M20.7,54.3h-9.5V16.1h9.2c11.7,0,18.9,7.3,18.9,19.2C39.3,47,32.1,54.3,20.7,54.3"/>
			<path id="Trazado_31" class="st0" d="M69.3,56.1c-6.6,0-10.4-4-10.9-11.3l26.7-0.1v-2.5c0-10.2-6.4-17-16.3-17
				c-10,0-16.9,7.5-16.9,18.2c0,10.7,7,18,17.2,18c8.6,0,14.4-4.2,16.1-11.6H79C77.9,54,74.5,56.1,69.3,56.1 M68.9,30.9
				c5.9,0,9.6,3.8,9.6,9.5H58.5C59.4,34.3,63.1,30.9,68.9,30.9"/>
			<path id="Trazado_32" class="st0" d="M107.4,45.5c-1.1,2.7-2.1,5.4-2.9,8.2c-0.6-2.1-1.6-5-2.8-8.2l-7.6-19.2h-7.1L101,60.7h6.6
				L122,26.3h-6.9L107.4,45.5z"/>
			<path id="Trazado_33" class="st0" d="M141.6,25.4c-10.4,0-18,7.5-18,18.1s7.6,18.1,18,18.1c10.3,0,18-7.5,18-18.1
				S151.9,25.4,141.6,25.4 M141.6,55.6c-6.7,0-11.3-5-11.3-12.2s4.6-12.2,11.3-12.2c6.6,0,11.3,5,11.3,12.2S148.2,55.6,141.6,55.6"
				/>
			<path id="Trazado_34" class="st0" d="M185.1,25.3c-4.7-0.2-9.1,2.2-11.5,6.3l-0.7-5.3h-6v34.4h6.6V42.5c0-6.7,3.6-11.1,9.8-11.1
				c5.1,0,8.3,2.8,8.3,9.8v19.6h6.6V39.7C198.4,30.9,194.2,25.3,185.1,25.3"/>
			<path id="Trazado_35" class="st0" d="M212.5,51.6c-2.7,0-4.9,2.3-4.9,5c0,2.7,2.3,4.9,5,4.9c2.7,0,4.9-2.2,4.9-4.9
				C217.5,53.9,215.3,51.7,212.5,51.6"/>
		</g>
	</g>
</g>
</svg>
